# xmcd
#
# Track frame offsets:
#	150
#	20912
#	51825
#	74472
#	91640
#	116888
#	143191
#	167371
#	188592
#	219177
#	243099
#	267091
#
# Disc length: 3904 seconds
#
# Revision: 1
# Processed by: cddbd v1.5.2PL0 Copyright (c) Steve Scherf et al.
# Submitted via: EZCDAudioConverter 2.1.7.1
#
DISCID=9f0f3e0c
DTITLE=V/A - Senegal 70
DYEAR=1900
DGENRE=
TTITLE0=Fangóól - Mariama
TTITLE1=Orchestre G.M.I. - Groupement Mobil D'Intervention - Africa
TTITLE2=Orchestre Bawobab - Thiely
TTITLE3=Le Saourouba De Louga - Bour Siné
TTITLE4=King N'Gom Et Les Perles Noires - Viva Marvillas
TTITLE5=Orchestre Laye Thiam - Massani Cicé
TTITLE6=Amara Touré Et Le Star Band De Dakar - El Carretero
TTITLE7=Tropical Jazz - Kiko Medina
TTITLE8=Orchestre Laye Thiam - Kokorico
TTITLE9=Gëstu De Dakar - Ndiourel
TTITLE10=Orchestre Bawobab - Ma Penda
TTITLE11=Orchestre Laye Thiam - Sanga Té
EXTD=
EXTT0=
EXTT1=
EXTT2=
EXTT3=
EXTT4=
EXTT5=
EXTT6=
EXTT7=
EXTT8=
EXTT9=
EXTT10=
EXTT11=
PLAYORDER=
